<svg width="80" height="80" viewBox="0 0 80 80" fill="none" xmlns="http://www.w3.org/2000/svg">
<path d="M40.0078 27.3606C41.0956 27.3606 41.9663 26.4734 41.9663 25.3849C41.9656 24.8657 41.759 24.3679 41.3919 24.0008C41.0247 23.6337 40.527 23.4271 40.0078 23.4263C39.7493 23.4248 39.4931 23.4743 39.2539 23.572C39.0146 23.6697 38.797 23.8136 38.6134 23.9956C38.4299 24.1775 38.2841 24.3939 38.1843 24.6323C38.0845 24.8707 38.0328 25.1264 38.0321 25.3849C38.0311 25.6446 38.0816 25.9019 38.1805 26.1421C38.2795 26.3822 38.425 26.6004 38.6086 26.784C38.7923 26.9677 39.0105 27.1132 39.2506 27.2121C39.4907 27.3111 39.748 27.3615 40.0078 27.3606ZM52.1285 32.3992C52.386 32.4003 52.6412 32.3504 52.8793 32.2524C53.1175 32.1544 53.3338 32.0101 53.5159 31.828C53.698 31.6459 53.8423 31.4296 53.9403 31.1914C54.0383 30.9533 54.0882 30.6981 54.0871 30.4406C54.0895 30.1827 54.0406 29.9269 53.943 29.6882C53.8455 29.4494 53.7013 29.2325 53.5189 29.0501C53.3366 28.8678 53.1197 28.7236 52.8809 28.6261C52.6422 28.5285 52.3864 28.4795 52.1285 28.482C51.8709 28.4808 51.6156 28.5306 51.3774 28.6286C51.1392 28.7266 50.9227 28.8708 50.7406 29.0529C50.5584 29.235 50.4141 29.4514 50.316 29.6896C50.218 29.9278 50.1681 30.183 50.1692 30.4406C50.17 30.9598 50.3765 31.4575 50.7437 31.8247C51.1108 32.1918 51.6093 32.3984 52.1285 32.3992ZM27.8528 32.4327C28.372 32.432 28.8697 32.2254 29.2369 31.8582C29.604 31.4911 29.8106 30.9934 29.8113 30.4742C29.8125 30.2166 29.7626 29.9614 29.6646 29.7233C29.5665 29.4852 29.4223 29.2688 29.2402 29.0867C29.0581 28.9046 28.8418 28.7604 28.6036 28.6624C28.3655 28.5643 28.1103 28.5145 27.8528 28.5156C27.5949 28.5131 27.3391 28.5621 27.1003 28.6596C26.8616 28.7572 26.6447 28.9013 26.4623 29.0837C26.28 29.2661 26.1358 29.483 26.0382 29.7217C25.9407 29.9605 25.8917 30.2163 25.8942 30.4742C25.8931 30.7317 25.9429 30.9869 26.041 31.225C26.139 31.4631 26.2832 31.6795 26.4653 31.8616C26.6474 32.0437 26.8638 32.1879 27.1019 32.286C27.3401 32.384 27.5952 32.4339 27.8528 32.4327ZM40.0071 54.0627C46.3521 54.0627 51.5249 48.9227 51.5249 42.5277C51.5249 36.1492 46.3521 31.0099 40.0071 31.0099C33.6449 31.0099 28.4721 36.1492 28.4721 42.5277C28.4721 48.9227 33.6456 54.0627 40.0071 54.0627ZM40.0071 33.5542C44.9456 33.5542 48.9799 37.572 48.9799 42.527C48.9799 47.4827 44.9456 51.5006 40.0071 51.5006C37.9751 51.4995 36.0038 50.8087 34.4156 49.5413L40.8606 43.0963C41.3292 42.6277 41.3292 41.9249 40.8606 41.422C40.4421 40.9863 39.6556 40.9863 39.2199 41.422L32.7913 47.8677C31.6327 46.329 31.0095 44.4532 31.0171 42.527C31.0171 37.572 35.0513 33.5542 40.0071 33.5542ZM57.1335 44.4856C57.391 44.4867 57.6462 44.4368 57.8843 44.3388C58.1225 44.2408 58.3388 44.0966 58.5209 43.9145C58.703 43.7324 58.8473 43.516 58.9453 43.2779C59.0433 43.0397 59.0932 42.7845 59.0921 42.527C59.0945 42.2691 59.0456 42.0133 58.948 41.7746C58.8505 41.5358 58.7063 41.3189 58.5239 41.1366C58.3416 40.9542 58.1247 40.81 57.8859 40.7125C57.6472 40.6149 57.3914 40.566 57.1335 40.5684C56.876 40.5673 56.6208 40.6172 56.3826 40.7152C56.1445 40.8132 55.9281 40.9575 55.746 41.1396C55.5639 41.3217 55.4197 41.538 55.3217 41.7762C55.2237 42.0143 55.1738 42.2695 55.1749 42.527C55.1757 43.0462 55.3823 43.544 55.7494 43.9111C56.1165 44.2782 56.6143 44.4848 57.1335 44.4856ZM22.8649 44.4856C23.3841 44.4848 23.8819 44.2782 24.249 43.9111C24.6161 43.544 24.8227 43.0462 24.8235 42.527C24.8246 42.2695 24.7747 42.0143 24.6767 41.7762C24.5787 41.538 24.4345 41.3217 24.2524 41.1396C24.0703 40.9575 23.8539 40.8132 23.6158 40.7152C23.3776 40.6172 23.1224 40.5673 22.8649 40.5684C22.607 40.566 22.3512 40.6149 22.1125 40.7125C21.8737 40.81 21.6568 40.9542 21.4745 41.1366C21.2921 41.3189 21.1479 41.5358 21.0504 41.7746C20.9528 42.0133 20.9039 42.2691 20.9063 42.527C20.9052 42.7845 20.9551 43.0397 21.0531 43.2779C21.1511 43.516 21.2954 43.7324 21.4775 43.9145C21.6596 44.0966 21.8759 44.2408 22.1141 44.3388C22.3522 44.4368 22.6074 44.4867 22.8649 44.4856ZM27.8535 56.5563C28.111 56.5574 28.3662 56.5075 28.6043 56.4095C28.8425 56.3115 29.0588 56.1673 29.2409 55.9852C29.423 55.8031 29.5673 55.5867 29.6653 55.3486C29.7633 55.1104 29.8132 54.8552 29.8121 54.5977C29.8115 54.0784 29.605 53.5805 29.2378 53.2132C28.8707 52.8459 28.3728 52.6392 27.8535 52.6384C27.596 52.6373 27.3408 52.6872 27.1026 52.7852C26.8645 52.8832 26.6481 53.0275 26.466 53.2096C26.2839 53.3917 26.1397 53.608 26.0417 53.8462C25.9437 54.0843 25.8938 54.3395 25.8949 54.597C25.8923 54.855 25.9412 55.1108 26.0387 55.3497C26.1362 55.5885 26.2804 55.8055 26.4628 55.9879C26.6452 56.1704 26.8621 56.3146 27.1009 56.4122C27.3397 56.5098 27.5955 56.5588 27.8535 56.5563ZM52.1113 56.5727C52.3692 56.5752 52.625 56.5262 52.8638 56.4287C53.1025 56.3311 53.3194 56.187 53.5018 56.0046C53.6842 55.8222 53.8283 55.6053 53.9259 55.3666C54.0234 55.1278 54.0724 54.872 54.0699 54.6142C54.071 54.3566 54.0212 54.1014 53.9231 53.8633C53.8251 53.6252 53.6809 53.4088 53.4988 53.2267C53.3167 53.0446 53.1003 52.9004 52.8622 52.8024C52.6241 52.7043 52.3689 52.6544 52.1113 52.6556C51.5921 52.6563 51.0944 52.8629 50.7273 53.2301C50.3601 53.5972 50.1535 54.0949 50.1528 54.6142C50.1516 54.8717 50.2015 55.1269 50.2995 55.365C50.3976 55.6031 50.5418 55.8195 50.7239 56.0016C50.906 56.1837 51.1224 56.3279 51.3605 56.426C51.5986 56.524 51.8538 56.5739 52.1113 56.5727Z" fill="#00536F"/>
<circle cx="40" cy="40" r="39" stroke="#00536F" stroke-width="2"/>
</svg>
