<svg width="80" height="80" viewBox="0 0 80 80" fill="none" xmlns="http://www.w3.org/2000/svg">
<circle cx="40" cy="40" r="39" stroke="#00536F" stroke-width="2"/>
<path d="M50.2644 32.2002L36.2477 24.1568L30.3311 34.3668M50.2644 32.2002L46.5027 38.6935M50.2644 32.2002L51.6661 33.0068M36.2494 24.1568L34.8544 23.3335M46.5027 38.6935L43.6477 43.6235L40.9161 48.3335M46.5027 38.6935L42.2394 36.2418M40.9161 48.3335L38.4244 52.6352C37.3479 54.4886 35.5806 55.8398 33.5097 56.3928C31.4389 56.9457 29.2332 56.6553 27.3761 55.5852C26.4574 55.0582 25.6518 54.355 25.0055 53.5159C24.3592 52.6769 23.8849 51.7185 23.6099 50.6957C23.3349 49.6729 23.2646 48.6059 23.4029 47.5559C23.5412 46.5059 23.8856 45.4935 24.4161 44.5768L26.5827 40.8335M40.9161 48.3335L36.5611 45.8285M43.6461 43.6235L36.6411 39.5935" stroke="#00536F" stroke-width="2" stroke-linecap="round"/>
<path d="M56.6667 44.8618C56.6667 46.7785 55.175 48.3335 53.3333 48.3335C51.4917 48.3335 50 46.7785 50 44.8618C50 43.6618 51.305 42.0601 52.2833 41.0285C52.4175 40.8841 52.58 40.7689 52.7606 40.6902C52.9413 40.6114 53.1363 40.5708 53.3333 40.5708C53.5304 40.5708 53.7254 40.6114 53.906 40.6902C54.0867 40.7689 54.2492 40.8841 54.3833 41.0285C55.3617 42.0601 56.6667 43.6618 56.6667 44.8618Z" stroke="#00536F" stroke-width="1.5"/>
</svg>
