<svg width="80" height="80" viewBox="0 0 80 80" fill="none" xmlns="http://www.w3.org/2000/svg">
<circle cx="40" cy="40" r="39" stroke="#00536F" stroke-width="2"/>
<path d="M43.465 22.5C43.7297 22.5 43.9875 22.584 44.2013 22.7399C44.4152 22.8958 44.574 23.1156 44.655 23.3675L46.03 27.64C46.6075 27.9225 47.16 28.24 47.6875 28.5975L52.0775 27.6525C52.3364 27.5972 52.6061 27.6256 52.8478 27.7334C53.0895 27.8412 53.2907 28.023 53.4225 28.2525L56.8875 34.25C57.0198 34.4794 57.0759 34.7449 57.0476 35.0082C57.0193 35.2715 56.9081 35.519 56.73 35.715L53.7175 39.04C53.7614 39.6776 53.7614 40.3174 53.7175 40.955L56.73 44.285C56.9081 44.481 57.0193 44.7285 57.0476 44.9918C57.0759 45.2551 57.0198 45.5206 56.8875 45.75L53.4225 51.75C53.2904 51.9791 53.089 52.1603 52.8473 52.2677C52.6056 52.375 52.3361 52.403 52.0775 52.3475L47.6875 51.4025C47.1625 51.7575 46.6075 52.0775 46.0325 52.36L44.655 56.6325C44.574 56.8844 44.4152 57.1042 44.2013 57.2601C43.9875 57.416 43.7297 57.5 43.465 57.5H36.535C36.2704 57.5 36.0126 57.416 35.7987 57.2601C35.5849 57.1042 35.426 56.8844 35.345 56.6325L33.9725 52.3625C33.3966 52.0808 32.8411 51.7592 32.31 51.4L27.9225 52.3475C27.6637 52.4028 27.394 52.3744 27.1523 52.2666C26.9106 52.1588 26.7093 51.977 26.5775 51.7475L23.1125 45.75C22.9802 45.5206 22.9242 45.2551 22.9525 44.9918C22.9808 44.7285 23.092 44.481 23.27 44.285L26.2825 40.955C26.2389 40.3191 26.2389 39.6809 26.2825 39.045L23.27 35.715C23.092 35.519 22.9808 35.2715 22.9525 35.0082C22.9242 34.7449 22.9802 34.4794 23.1125 34.25L26.5775 28.25C26.7097 28.0209 26.9111 27.8397 27.1528 27.7323C27.3945 27.625 27.664 27.597 27.9225 27.6525L32.31 28.6C32.84 28.2425 33.395 27.92 33.9725 27.6375L35.3475 23.3675C35.4282 23.1164 35.5863 22.8972 35.7992 22.7414C36.012 22.5856 36.2687 22.5011 36.5325 22.5H43.4625H43.465ZM42.55 25H37.45L36.03 29.4175L35.0725 29.885C34.6018 30.1153 34.1474 30.3776 33.7125 30.67L32.8275 31.27L28.2875 30.29L25.7375 34.71L28.85 38.155L28.775 39.215C28.7391 39.7377 28.7391 40.2623 28.775 40.785L28.85 41.845L25.7325 45.29L28.285 49.71L32.825 48.7325L33.71 49.33C34.1449 49.6224 34.5993 49.8847 35.07 50.115L36.0275 50.5825L37.45 55H42.555L43.98 50.58L44.935 50.115C45.4052 49.8852 45.8588 49.6229 46.2925 49.33L47.175 48.7325L51.7175 49.71L54.2675 45.29L51.1525 41.845L51.2275 40.785C51.2636 40.2615 51.2636 39.736 51.2275 39.2125L51.1525 38.1525L54.27 34.71L51.7175 30.29L47.175 31.265L46.2925 30.67C45.8588 30.3771 45.4052 30.1148 44.935 29.885L43.98 29.42L42.5525 25H42.55ZM40 32.5C41.9892 32.5 43.8968 33.2902 45.3033 34.6967C46.7099 36.1032 47.5 38.0109 47.5 40C47.5 41.9891 46.7099 43.8968 45.3033 45.3033C43.8968 46.7098 41.9892 47.5 40 47.5C38.0109 47.5 36.1032 46.7098 34.6967 45.3033C33.2902 43.8968 32.5 41.9891 32.5 40C32.5 38.0109 33.2902 36.1032 34.6967 34.6967C36.1032 33.2902 38.0109 32.5 40 32.5ZM40 35C38.6739 35 37.4022 35.5268 36.4645 36.4645C35.5268 37.4021 35 38.6739 35 40C35 41.3261 35.5268 42.5979 36.4645 43.5355C37.4022 44.4732 38.6739 45 40 45C41.3261 45 42.5979 44.4732 43.5356 43.5355C44.4732 42.5979 45 41.3261 45 40C45 38.6739 44.4732 37.4021 43.5356 36.4645C42.5979 35.5268 41.3261 35 40 35Z" fill="#00536F"/>
</svg>
