<svg width="80" height="80" viewBox="0 0 80 80" fill="none" xmlns="http://www.w3.org/2000/svg">
<circle cx="40" cy="40" r="39" stroke="#00536F" stroke-width="2"/>
<path d="M46.6672 48.3335L47.0172 48.6835C47.6322 49.2985 47.9389 49.6052 48.3106 49.5835C48.6822 49.5635 48.9539 49.2252 49.4972 48.5452L51.6672 45.8335M46.9522 33.1835V35.8335M46.9522 33.1835C46.9522 31.9268 48.0089 30.9085 49.3106 30.9085C50.6106 30.9085 51.6672 31.9268 51.6672 33.1818V35.8335M46.9522 33.1835V28.6352C46.9522 27.3802 45.8972 26.3618 44.5956 26.3618C43.2939 26.3618 42.2372 27.3785 42.2372 28.6352M42.2372 28.6352V35.8335M42.2372 28.6352V25.6068C42.2372 24.3502 41.1839 23.3335 39.8806 23.3335C38.5772 23.3335 37.5239 24.3502 37.5239 25.6068V30.1502M37.5239 30.1502C37.5239 28.8952 36.4672 27.8768 35.1656 27.8768C33.8656 27.8768 32.8089 28.8935 32.8089 30.1502V41.0618C32.8089 41.7552 31.9206 42.0835 31.4372 41.5702L27.6206 37.5052C27.2961 37.1291 26.8612 36.8651 26.3779 36.7508C25.8945 36.6365 25.3874 36.6777 24.9289 36.8685C23.2489 37.5635 22.8539 40.0152 23.9456 41.4285C25.8156 43.8485 27.7289 47.1502 29.2756 50.0618C31.3756 54.0168 35.5172 56.6668 40.1206 56.6668M37.5239 30.1502V35.8335M41.6672 45.7568V46.4002C41.6672 48.4035 41.6672 49.4052 41.9139 50.3218C42.2221 51.4588 42.8021 52.5038 43.6039 53.3668C44.2539 54.0702 45.1139 54.6168 46.8322 55.7118C47.6006 56.2018 47.9856 56.4468 48.3956 56.5618C48.9006 56.7018 49.4356 56.7018 49.9406 56.5618C50.3489 56.4468 50.7339 56.2018 51.5022 55.7118C53.2206 54.6168 54.0806 54.0702 54.7306 53.3668C55.5324 52.5038 56.1124 51.4588 56.4206 50.3218C56.6672 49.4052 56.6672 48.4052 56.6672 46.4002V45.7568C56.6672 44.5102 56.6672 43.8868 56.4306 43.3602C56.2821 43.0351 56.0734 42.741 55.8156 42.4935C55.3939 42.0935 54.7956 41.8735 53.5989 41.4352L51.1422 40.5352C50.1656 40.1785 49.6772 40.0002 49.1672 40.0002C48.6572 40.0002 48.1689 40.1785 47.1922 40.5368L44.7356 41.4368C43.5389 41.8735 42.9406 42.0918 42.5189 42.4935C42.2605 42.7409 42.0512 43.0349 41.9022 43.3602C41.6672 43.8868 41.6672 44.5102 41.6672 45.7568Z" stroke="#00536F" stroke-width="2" stroke-linecap="round" stroke-linejoin="round"/>
</svg>
