<svg width="80" height="80" viewBox="0 0 80 80" fill="none" xmlns="http://www.w3.org/2000/svg">
<circle cx="40" cy="40" r="39" stroke="#00536F" stroke-width="2"/>
<path d="M30.0003 31.6666C30.0007 30.2991 30.2816 28.9463 30.8256 27.6917C31.3696 26.4371 32.1652 25.3074 33.1631 24.3725C34.161 23.4375 35.34 22.7172 36.6273 22.2559C37.9146 21.7947 39.2829 21.6024 40.6474 21.6909C42.012 21.7794 43.344 22.1468 44.5609 22.7705C45.7779 23.3941 46.854 24.2607 47.7228 25.3167C48.5915 26.3727 49.2345 27.5957 49.6119 28.91C49.9893 30.2244 50.0931 31.6022 49.9169 32.9582C51.8412 34.0445 53.3516 35.7375 54.212 37.7728C55.0724 39.8082 55.2344 42.0712 54.6727 44.2083C54.1111 46.3455 52.8574 48.2364 51.1075 49.5857C49.3575 50.935 47.21 51.6667 45.0003 51.6666H41.6669V56.6666H38.3336V51.6666H34.1669C32.0773 51.6675 30.0501 50.9545 28.4212 49.6456C26.7922 48.3368 25.6594 46.5107 25.2103 44.4699C24.7612 42.4291 25.0229 40.2961 25.9519 38.4244C26.881 36.5527 28.4216 35.0545 30.3186 34.1782C30.1065 33.3579 29.9995 32.5139 30.0003 31.6666ZM31.6836 37.2199C30.4858 37.7862 29.5164 38.7431 28.9346 39.9333C28.3527 41.1236 28.1932 42.4764 28.4821 43.7694C28.771 45.0624 29.4912 46.2186 30.5244 47.048C31.5575 47.8774 32.8421 48.3307 34.1669 48.3332H45.0003C46.5557 48.3348 48.0628 47.7925 49.2605 46.8002C50.4583 45.8078 51.2713 44.4279 51.5589 42.8992C51.8465 41.3706 51.5906 39.7896 50.8354 38.4297C50.0802 37.0699 48.8733 36.017 47.4236 35.4532L46.0219 34.9066C46.3169 33.8399 46.6669 32.7866 46.6669 31.6666C46.6669 30.5302 46.3765 29.4127 45.8231 28.4201C45.2697 27.4276 44.4718 26.593 43.5051 25.9955C42.5385 25.3981 41.4352 25.0577 40.2999 25.0066C39.1647 24.9555 38.0353 25.1955 37.0188 25.7037C36.0024 26.2119 35.1328 26.9715 34.4925 27.9103C33.8523 28.8492 33.4626 29.9361 33.3605 31.0679C33.2585 32.1996 33.4474 33.3387 33.9094 34.3769C34.3714 35.4152 35.0912 36.3181 36.0003 36.9999L34.0003 39.6666C33.0952 38.9879 32.3119 38.1606 31.6836 37.2199Z" fill="#00536F"/>
</svg>
