<svg width="80" height="80" viewBox="0 0 80 80" fill="none" xmlns="http://www.w3.org/2000/svg">
<circle cx="40" cy="40" r="39" stroke="#00536F" stroke-width="2"/>
<g clip-path="url(#clip0_540_4768)">
<path d="M57.5 45C57.5025 43.7483 57.1917 42.5159 56.596 41.4151C56.0002 40.3143 55.1384 39.3801 54.0891 38.6976C53.0398 38.0152 51.8364 37.6062 50.5886 37.508C49.3408 37.4098 48.0882 37.6254 46.9451 38.1352C45.8019 38.6451 44.8046 39.4329 44.0439 40.4269C43.2832 41.421 42.7834 42.5896 42.59 43.8262C42.3967 45.0629 42.5159 46.3283 42.9368 47.5071C43.3578 48.6859 44.067 49.7406 45 50.575V60L50 57.6325L55 60V50.575C55.7858 49.8742 56.4148 49.0154 56.8456 48.0546C57.2764 47.0939 57.4994 46.0529 57.5 45ZM52.5 56.05L50 54.8663L47.5 56.05V52.0625C49.1158 52.6447 50.8842 52.6447 52.5 52.0625V56.05ZM50 50C49.0111 50 48.0444 49.7068 47.2221 49.1574C46.3999 48.608 45.759 47.8271 45.3806 46.9134C45.0022 45.9998 44.9031 44.9945 45.0961 44.0246C45.289 43.0547 45.7652 42.1638 46.4645 41.4645C47.1637 40.7652 48.0546 40.289 49.0245 40.0961C49.9944 39.9032 50.9998 40.0022 51.9134 40.3806C52.827 40.7591 53.6079 41.3999 54.1573 42.2222C54.7067 43.0444 55 44.0111 55 45C54.9983 46.3256 54.471 47.5964 53.5337 48.5337C52.5964 49.4711 51.3256 49.9984 50 50Z" fill="#00536F"/>
<path d="M51.25 26.25H47.5V25C47.498 24.3376 47.234 23.7028 46.7656 23.2344C46.2972 22.766 45.6624 22.502 45 22.5H35C34.3376 22.502 33.7028 22.766 33.2344 23.2344C32.766 23.7028 32.502 24.3376 32.5 25V26.25H28.75C28.0876 26.252 27.4528 26.516 26.9844 26.9844C26.516 27.4528 26.252 28.0876 26.25 28.75V55C26.252 55.6624 26.516 56.2972 26.9844 56.7656C27.4528 57.234 28.0876 57.498 28.75 57.5H40V55H28.75V28.75H32.5V32.5H47.5V28.75H51.25V35H53.75V28.75C53.748 28.0876 53.484 27.4528 53.0156 26.9844C52.5472 26.516 51.9124 26.252 51.25 26.25ZM45 30H35V25H45V30Z" fill="#00536F"/>
</g>
<defs>
<clipPath id="clip0_540_4768">
<rect width="40" height="40" fill="white" transform="translate(20 20)"/>
</clipPath>
</defs>
</svg>
